<svg xmlns="http://www.w3.org/2000/svg" xmlns:xlink="http://www.w3.org/1999/xlink" xml:space="preserve" viewBox="0 0 257 257"><defs><path id="a" d="M.202 2.151h256.596v252.697H.202z"/></defs><clipPath id="b"><use xlink:href="#a" overflow="visible"/></clipPath><path d="M126.604 254.849c69.809 0 126.402-56.593 126.402-126.402S196.413 2.046 126.604 2.046.202 58.638.202 128.447s56.593 126.402 126.402 126.402" clip-path="url(#b)"/><defs><path id="c" d="M.202 2.151h256.596v252.697H.202z"/></defs><clipPath id="d"><use xlink:href="#c" overflow="visible"/></clipPath><path fill="#FFF" d="M26.646 108.999a1.595 1.595 0 0 1-.341.405l-.004.005a.924.924 0 0 1-.38.203l-.422.101 1.097.791.113-.174c.097-.147.196-.324.295-.52.086-.173.175-.377.261-.61a5.75 5.75 0 0 0 .224-.818 4.032 4.032 0 0 0 .037-1.479 3.187 3.187 0 0 0-.496-1.243 3.26 3.26 0 0 0-.966-.916 4.1 4.1 0 0 0-1.372-.529 4.113 4.113 0 0 0-1.467-.047 3.202 3.202 0 0 0-1.244.468 3.119 3.119 0 0 0-.934.951c-.25.39-.429.854-.535 1.378a6.02 6.02 0 0 0-.112.837 4.85 4.85 0 0 0 .002.664c.015.227.041.429.08.606l.043.194 1.318-.299-.36-.257a.891.891 0 0 1-.278-.336l-.005-.007a1.605 1.605 0 0 1-.153-.502c-.032-.21-.017-.473.045-.783.072-.352.203-.658.393-.91.19-.253.431-.456.714-.604a2.753 2.753 0 0 1 1.003-.283 4.26 4.26 0 0 1 1.261.08c.447.093.846.233 1.189.418.336.184.612.401.819.654.205.246.348.526.427.834.078.307.082.641.011.993-.062.31-.151.556-.263.735M25.661 115.362a.937.937 0 0 1-.619.529 1.392 1.392 0 0 1-.542.026 1.444 1.444 0 0 1-.534-.162.942.942 0 0 1-.315-.285.98.98 0 0 1-.149-.382 1.672 1.672 0 0 1-.009-.476l.166-1.32 2.291.291-.164 1.318a1.644 1.644 0 0 1-.125.461m-6.451.602-.173 1.376 3.788-1.775c.008.108.026.214.054.317a1.516 1.516 0 0 0 .765.979c.199.11.438.186.712.22.285.037.55.009.785-.082.231-.09.434-.22.6-.384.163-.166.297-.362.396-.586.095-.22.16-.449.188-.682l.356-2.855-6.93-.876-.144 1.165 3.466.437-.125.997-3.738 1.749z" clip-path="url(#d)"/><path fill="#FFF" d="m19.375 121.039 2.879.153-.149 2.843.591.03.149-2.843 2.325.123-.183 3.507.589.03.245-4.678-6.974-.368-.244 4.677.589.031zM21.42 128.612l2.726 1.009-2.687 1.064-.039-2.073zm4.152.908-7.035-2.607.013.642 2.275.839.047 2.515-2.243.886.024 1.247 6.934-2.726-.015-.796zM25.549 139.191l.589-.049-.457-5.517-.589.048.181 2.174-6.371.537.095 1.169 6.373-.535zM19.493 142.096l6.92-.953.16 1.162-6.92.953z"/><defs><path id="e" d="M.202 2.151h256.596v252.697H.202z"/></defs><clipPath id="f"><use xlink:href="#e" overflow="visible"/></clipPath><path fill="#FFF" d="M21.18 148.063c.082-.291.229-.561.436-.802a2.81 2.81 0 0 1 .822-.643 4.273 4.273 0 0 1 1.192-.414c.313-.062.613-.093.897-.093.123 0 .244.007.361.018.381.038.72.131 1.007.278.282.142.52.336.705.574.186.237.311.519.373.839.065.321.054.631-.028.92a2.165 2.165 0 0 1-.433.809c-.21.246-.486.464-.824.647a4.261 4.261 0 0 1-1.191.412 4.247 4.247 0 0 1-1.259.078 2.821 2.821 0 0 1-1.003-.283 2.17 2.17 0 0 1-.71-.58 2.013 2.013 0 0 1-.373-.841 1.972 1.972 0 0 1 .028-.919m2.075 3.74c.192.03.39.047.593.047.283 0 .574-.03.876-.09a4.152 4.152 0 0 0 1.374-.524 3.38 3.38 0 0 0 .97-.9 3.07 3.07 0 0 0 .507-1.209 3.685 3.685 0 0 0-.022-1.417 3.67 3.67 0 0 0-.519-1.325 3.018 3.018 0 0 0-.926-.916 3.311 3.311 0 0 0-1.235-.46 4.164 4.164 0 0 0-1.469.043 4.104 4.104 0 0 0-1.372.525c-.395.245-.72.547-.97.899a3.015 3.015 0 0 0-.507 1.203c-.087.445-.08.923.019 1.424.097.496.272.938.518 1.318.25.383.561.694.927.923.362.228.779.384 1.236.459" clip-path="url(#f)"/><path fill="#FFF" d="m29.767 157.044-4.751 1.339 3.959-4.192-.237-.854.13-.136-.156.043-.054-.192-6.726 1.896.159.573 5.502-1.55-4.587 4.842.194.7 6.727-1.895zM27.544 165.459l.794 2.058.886-.348-.796-2.057zM35.397 171.701l-6.283 3.073.509 1.057 6.283-3.073zM39.472 179.454l.522-.293-.632.095-.104-.186-5.372.805 3.552-4.081-.395-.712.406-.463-.505.284-.097-.174-6.095 3.437.289.52 4.59-2.588-3.686 4.212.239.434 5.737-.869-4.736 2.67.569 1.024 6.095-3.436z"/><defs><path id="g" d="M.202 2.151h256.596v252.697H.202z"/></defs><clipPath id="h"><use xlink:href="#g" overflow="visible"/></clipPath><path fill="#FFF" d="m41.129 183.249.729 1.109c.093.14.162.285.205.431.039.136.05.274.03.408a1.011 1.011 0 0 1-.157.399 1.39 1.39 0 0 1-.395.375 1.425 1.425 0 0 1-.511.229.936.936 0 0 1-.42-.009.972.972 0 0 1-.361-.192 1.586 1.586 0 0 1-.315-.356l-.729-1.108 1.924-1.286zm-.912 3.71a1.47 1.47 0 0 0 .934.33c.106 0 .211-.011.321-.03.233-.046.473-.149.712-.311.241-.159.425-.356.543-.578.117-.218.188-.448.207-.686a1.918 1.918 0 0 0-.079-.705 2.513 2.513 0 0 0-.298-.638l-1.579-2.399-5.821 3.889.643.977 2.912-1.943 1.05 1.594c.129.196.282.364.455.5M43.232 190.372l1.829-1.419.807 1.053c.101.133.179.274.233.416a.942.942 0 0 1-.069.813 1.38 1.38 0 0 1-.369.403 1.416 1.416 0 0 1-.492.263.92.92 0 0 1-.423.022.988.988 0 0 1-.371-.164 1.624 1.624 0 0 1-.34-.334l-.805-1.053zm1.842 2.597c.205.028.423.011.643-.052.218-.062.44-.179.658-.349.228-.177.396-.386.5-.617.101-.226.155-.462.157-.697a1.927 1.927 0 0 0-.127-.698 2.43 2.43 0 0 0-.343-.615l-1.742-2.282-5.535 4.294.712.93 2.767-2.148.608.798-1.432 3.892.841 1.1 1.445-3.949c.085.072.171.134.261.188.184.11.38.179.587.205" clip-path="url(#h)"/><path fill="#FFF" d="m49.619 199.103.444-.393-1.863-2.139 1.749-1.546 2.299 2.637.444-.392-3.067-3.52-5.249 4.641 3.067 3.52.444-.393-2.299-2.637 2.168-1.918z"/><defs><path id="i" d="M.202 2.151h256.596v252.697H.202z"/></defs><clipPath id="j"><use xlink:href="#i" overflow="visible"/></clipPath><path fill="#FFF" d="M54.047 200.622a.69.69 0 0 1 .647-.209c.28.045.559.205.828.47.224.222.384.433.477.632.093.2.146.375.164.524v.006c.026.166.017.322-.022.46l-.11.384 1.23-.483-.089-.192a6.462 6.462 0 0 0-.66-1.105 5.676 5.676 0 0 0-.563-.638 4.116 4.116 0 0 0-.694-.561 2.03 2.03 0 0 0-.736-.291 1.496 1.496 0 0 0-.767.071c-.251.091-.499.261-.74.507a1.765 1.765 0 0 0-.44.71 1.976 1.976 0 0 0-.076.733c.022.237.076.483.164.725.084.233.177.465.274.69.097.224.19.446.278.664.082.205.138.408.171.602.028.183.021.362-.02.532a1.014 1.014 0 0 1-.282.475.917.917 0 0 1-.352.229c-.133.047-.28.064-.433.051a1.442 1.442 0 0 1-.483-.14 1.894 1.894 0 0 1-.481-.351c-.248-.246-.414-.488-.492-.714a1.982 1.982 0 0 1-.114-.639c.002-.211.045-.418.129-.616l.157-.367-1.354.341.017.17c.022.214.08.444.171.686.077.207.2.446.368.714.167.267.404.552.706.849.295.294.597.514.895.652.304.14.604.215.895.222h.049c.279 0 .546-.06.798-.177.264-.121.505-.295.725-.52.248-.256.384-.55.401-.875.015-.3-.024-.617-.116-.945a7.589 7.589 0 0 0-.347-.964 7.786 7.786 0 0 1-.333-.912 2.49 2.49 0 0 1-.11-.803.879.879 0 0 1 .27-.597M59.55 207.801a7.993 7.993 0 0 1-.395-.886 2.565 2.565 0 0 1-.164-.796.865.865 0 0 1 .229-.613.687.687 0 0 1 .63-.254c.284.026.571.166.858.412.24.205.414.405.518.597.105.192.174.365.2.511l.002.007a1.1 1.1 0 0 1 .009.459l-.084.393 1.195-.57-.104-.183a5.984 5.984 0 0 0-.733-1.057 5.61 5.61 0 0 0-.604-.597 4.122 4.122 0 0 0-.731-.511 2.04 2.04 0 0 0-.755-.242 1.508 1.508 0 0 0-.761.125c-.244.108-.479.296-.701.559a1.722 1.722 0 0 0-.393.737 1.94 1.94 0 0 0-.026.736c.039.237.11.479.214.714.099.224.207.45.321.668.113.216.22.434.322.643.097.198.168.397.211.589.041.181.048.36.019.532-.028.164-.112.33-.25.494a.933.933 0 0 1-.763.332 1.382 1.382 0 0 1-.492-.105 1.832 1.832 0 0 1-.505-.317c-.265-.229-.446-.458-.539-.68a1.933 1.933 0 0 1-.159-.627 1.634 1.634 0 0 1 .088-.624l.132-.377-1.327.434.028.168c.037.211.11.438.218.673.091.202.231.433.414.685.186.257.442.525.764.801.315.271.632.47.938.586.28.108.556.162.819.162.031 0 .059 0 .089-.002a1.89 1.89 0 0 0 .834-.235c.253-.138.484-.33.684-.57.231-.271.347-.573.343-.901a2.853 2.853 0 0 0-.181-.932 7.678 7.678 0 0 0-.412-.938" clip-path="url(#j)"/><path fill="#FFF" d="m64.591 208.171-4.257 5.579.925.714 4.255-5.577z"/><defs><path id="k" d="M.202 2.151h256.596v252.697H.202z"/></defs><clipPath id="l"><use xlink:href="#k" overflow="visible"/></clipPath><path fill="#FFF" d="M65.591 214.887a4.27 4.27 0 0 1 .561-1.138c.254-.382.537-.699.839-.945.3-.244.606-.418.91-.518a2.114 2.114 0 0 1 .904-.09c.295.036.582.149.852.332.267.183.476.41.621.673.146.265.233.563.256.882.024.323-.021.675-.133 1.044a4.394 4.394 0 0 1-.559 1.136 4.307 4.307 0 0 1-.843.949c-.296.24-.602.412-.91.509a2.08 2.08 0 0 1-.908.089 1.934 1.934 0 0 1-.852-.33 1.982 1.982 0 0 1-.621-.675 2.098 2.098 0 0 1-.253-.878 2.922 2.922 0 0 1 .136-1.04m5.888-.638a3.08 3.08 0 0 0-.483-1.219 3.739 3.739 0 0 0-1.005-.992 3.636 3.636 0 0 0-1.294-.573 2.995 2.995 0 0 0-1.299.004c-.416.095-.819.28-1.199.55a4.117 4.117 0 0 0-1.013 1.07 4.236 4.236 0 0 0-.611 1.345 3.384 3.384 0 0 0-.06 1.327c.067.429.229.839.479 1.216a3.7 3.7 0 0 0 1.009.997c.414.282.848.474 1.288.569.222.05.442.073.66.073.217 0 .433-.025.642-.073.419-.095.822-.28 1.199-.55.376-.27.719-.63 1.014-1.072.298-.44.503-.893.61-1.346.108-.453.13-.899.063-1.326" clip-path="url(#l)"/><path fill="#FFF" d="m75.639 221.42-.114-5.786-.766-.438-.004-.19-.08.142-.17-.099-3.456 6.114.514.296 2.825-5.004.123 6.695.628.36 3.455-6.117-.514-.293zM82.377 224.653l2.001.899.386-.873-2.003-.899z"/><defs><path id="m" d="M.202 2.151h256.596v252.697H.202z"/></defs><clipPath id="n"><use xlink:href="#m" overflow="visible"/></clipPath><path fill="#FFF" d="m93.184 224.465 1.253.421c.158.051.3.125.423.211a.913.913 0 0 1 .274.304.984.984 0 0 1 .121.41 1.38 1.38 0 0 1-.082.541 1.393 1.393 0 0 1-.261.496c-.104.119-.216.205-.339.257s-.256.078-.399.073a1.559 1.559 0 0 1-.465-.086l-1.254-.418.729-2.209zm2.912.799a1.889 1.889 0 0 0-.494-.507 2.391 2.391 0 0 0-.625-.317l-2.711-.91-2.205 6.677 1.105.371 1.104-3.341 1.801.604c.222.076.446.115.664.115.227 0 .442-.048.639-.138.198-.091.377-.227.532-.408.158-.179.283-.41.373-.686a1.64 1.64 0 0 0 .074-.794 1.721 1.721 0 0 0-.257-.666" clip-path="url(#n)"/><path fill="#FFF" d="m97.044 232.451 4.501 1.175.147-.575-3.371-.883.722-2.81 2.735.714.149-.576-2.735-.716.585-2.269 3.373.88.146-.575-4.499-1.176z"/><defs><path id="o" d="M.202 2.151h256.596v252.697H.202z"/></defs><clipPath id="p"><use xlink:href="#o" overflow="visible"/></clipPath><path fill="#FFF" d="m106.553 228.118 1.299.24a1.6 1.6 0 0 1 .448.153.925.925 0 0 1 .49.651 1.38 1.38 0 0 1-.007.546 1.439 1.439 0 0 1-.191.53.948.948 0 0 1-.298.3.967.967 0 0 1-.386.127c-.149.02-.309.013-.475-.019l-1.298-.239.418-2.289zm2.994.382a1.922 1.922 0 0 0-.559-.431 2.455 2.455 0 0 0-.664-.229l-2.81-.52-1.262 6.921 1.145.212.632-3.462.982.183 1.52 3.859 1.355.25-1.547-3.908c.108-.004.216-.015.319-.037.207-.041.399-.123.572-.241.17-.119.319-.278.442-.473a2.01 2.01 0 0 0 .257-.703 1.603 1.603 0 0 0-.037-.796 1.734 1.734 0 0 0-.345-.625M113.951 230.108a.7.7 0 0 1 .382-.567c.248-.138.565-.188.938-.145.313.035.569.102.761.201.196.099.347.205.451.31l.004.005c.123.116.212.241.266.375l.148.371.671-1.145-.187-.095a6.21 6.21 0 0 0-1.195-.46 5.76 5.76 0 0 0-.835-.153 4.149 4.149 0 0 0-.889-.008 2.056 2.056 0 0 0-.759.228 1.499 1.499 0 0 0-.558.533c-.143.229-.233.518-.272.861a1.75 1.75 0 0 0 .088.83c.089.233.22.442.391.623.164.177.356.334.573.47.205.13.419.255.639.371.213.119.425.235.623.35.192.112.36.235.505.368.134.126.239.272.313.432.066.149.09.334.066.548a.89.89 0 0 1-.138.399c-.075.12-.179.224-.308.308a1.364 1.364 0 0 1-.466.19 1.803 1.803 0 0 1-.593.024c-.347-.039-.625-.126-.824-.257a1.95 1.95 0 0 1-.483-.429 1.572 1.572 0 0 1-.274-.565l-.101-.386-.857 1.108.117.125c.149.153.334.3.554.432.188.116.432.228.727.334.296.106.658.183 1.076.231.156.017.304.026.449.026a2.7 2.7 0 0 0 .656-.074c.323-.077.606-.205.841-.382.237-.179.425-.403.558-.666.132-.257.216-.546.25-.858a1.341 1.341 0 0 0-.222-.939 2.847 2.847 0 0 0-.668-.67 7.533 7.533 0 0 0-.865-.542 7.656 7.656 0 0 1-.82-.511 2.5 2.5 0 0 1-.58-.565.878.878 0 0 1-.153-.636M122.886 235.935c-.325-.01-.62-.09-.881-.235a2.058 2.058 0 0 1-.677-.61 2.856 2.856 0 0 1-.436-.951 4.345 4.345 0 0 1-.129-1.266c.015-.46.086-.88.211-1.249.125-.367.291-.677.498-.925.203-.244.442-.434.716-.563a1.88 1.88 0 0 1 .821-.177h.074c.325.013.623.091.884.237.263.147.491.352.681.611.192.261.338.582.437.955.102.377.145.802.13 1.26a4.354 4.354 0 0 1-.211 1.255 2.806 2.806 0 0 1-.501.919 2.099 2.099 0 0 1-.722.562 1.89 1.89 0 0 1-.895.177m2.65-5.495a2.987 2.987 0 0 0-1.054-.772 3.67 3.67 0 0 0-1.373-.302 3.653 3.653 0 0 0-1.397.209c-.423.158-.794.393-1.098.699s-.547.679-.724 1.111a4.179 4.179 0 0 0-.291 1.449 4.196 4.196 0 0 0 .196 1.467c.149.442.366.83.649 1.156.282.325.636.584 1.048.769.409.186.873.287 1.379.305.048.002.097.002.145.002.446 0 .864-.071 1.246-.212a2.987 2.987 0 0 0 1.104-.701 3.38 3.38 0 0 0 .722-1.108c.177-.429.274-.917.291-1.452a4.19 4.19 0 0 0-.194-1.464 3.394 3.394 0 0 0-.649-1.156" clip-path="url(#p)"/><path fill="#FFF" d="m132.633 229.315.213 4.967-3.15-4.838-.88.037-.104-.157.007.161-.197.009.302 7.031.591-.026-.248-5.752 3.636 5.603.723-.03-.302-7.031zM139.451 228.664l.546 4.941-3.468-4.613-.876.099-.112-.153.017.164-.196.021.772 6.993.587-.067-.632-5.72 4.005 5.342.718-.08-.774-6.994zM144.295 232.134l.546-2.873 1.477 2.497-2.023.376zm.216-4.275-1.413 7.417.628-.116.453-2.399 2.454-.457 1.234 2.088 1.218-.227-3.798-6.45-.776.144zM152.513 232.716l-1.611-6.233-1.128.296 1.76 6.808 4.499-1.179-.149-.576zM156.463 224.912l2.111 6.707 1.111-.355-2.111-6.706z"/><defs><path id="q" d="M.202 2.151h256.596v252.697H.202z"/></defs><clipPath id="r"><use xlink:href="#q" overflow="visible"/></clipPath><path fill="#FFF" d="M165.363 225.941a2.859 2.859 0 0 0-.897-.293 7.597 7.597 0 0 0-1.014-.091 7.34 7.34 0 0 1-.962-.08 2.45 2.45 0 0 1-.77-.239.863.863 0 0 1-.422-.498.7.7 0 0 1 .084-.68c.159-.237.42-.425.772-.558.295-.11.554-.166.77-.166.22-.002.401.023.541.071h.007c.159.049.297.123.403.216l.3.263.084-1.327h-.209c-.188 0-.393.011-.611.033a5.628 5.628 0 0 0-1.475.347 4.19 4.19 0 0 0-.796.397 2.08 2.08 0 0 0-.576.55 1.523 1.523 0 0 0-.258.731c-.024.267.023.565.144.888.11.296.263.533.453.703.183.167.395.294.628.378.222.082.465.134.722.157.246.022.494.035.735.041.24.005.479.015.714.026.22.011.427.045.615.099.177.05.334.132.472.242.13.103.231.257.307.459a.905.905 0 0 1 .056.417 1.028 1.028 0 0 1-.136.418c-.08.138-.19.265-.33.382a1.837 1.837 0 0 1-.518.289c-.328.125-.614.174-.852.149a2.03 2.03 0 0 1-.623-.164 1.566 1.566 0 0 1-.498-.38l-.265-.298-.266 1.381.162.056c.201.071.434.114.688.133.067.005.138.007.214.007.172 0 .368-.013.584-.041a4.864 4.864 0 0 0 1.063-.285 3.21 3.21 0 0 0 .964-.543c.255-.218.449-.462.578-.725.132-.267.199-.552.199-.85a2.487 2.487 0 0 0-.162-.877 1.336 1.336 0 0 0-.619-.738" clip-path="url(#r)"/><path fill="#FFF" d="m169.187 224.532-.175-2.92 2.043 2.053-1.868.867zm-.839-4.195.449 7.538.58-.27-.149-2.437 2.267-1.052 1.706 1.714 1.125-.522-5.262-5.305-.716.334zM177.149 216.474l-.283-.524-4.831 2.64.281.522 1.904-1.04 3.048 5.664 1.024-.559-3.047-5.663zM178.566 214.896l3.649 6 .994-.615-3.649-5.998z"/><defs><path id="s" d="M.202 2.151h256.596v252.697H.202z"/></defs><clipPath id="t"><use xlink:href="#s" overflow="visible"/></clipPath><path fill="#FFF" d="M186.065 216.855a2.893 2.893 0 0 1-.915-.498 4.341 4.341 0 0 1-.856-.936 4.308 4.308 0 0 1-.573-1.128 2.865 2.865 0 0 1-.156-1.04c.018-.319.099-.617.24-.884.14-.265.345-.494.612-.682a1.919 1.919 0 0 1 1.126-.364c.209 0 .421.032.63.095.308.093.619.261.921.5.304.242.593.554.854.932.263.379.457.761.576 1.13.116.365.166.714.146 1.04a2.179 2.179 0 0 1-.241.886 1.965 1.965 0 0 1-.613.681 1.929 1.929 0 0 1-.847.346 2.086 2.086 0 0 1-.904-.078m2.836-4.678a4.095 4.095 0 0 0-1.029-1.055 3.296 3.296 0 0 0-1.207-.532 2.95 2.95 0 0 0-1.301.019 3.61 3.61 0 0 0-1.281.589 3.652 3.652 0 0 0-.994 1.011c-.244.38-.399.792-.462 1.223-.06.427-.032.874.082 1.324.114.449.326.9.63 1.338.304.437.649.791 1.029 1.054.381.266.787.445 1.207.533.199.043.402.063.606.063.229 0 .46-.026.693-.078a3.71 3.71 0 0 0 1.285-.593c.41-.289.742-.628.988-1.007.248-.384.405-.798.466-1.228a3.397 3.397 0 0 0-.08-1.324 4.203 4.203 0 0 0-.632-1.337" clip-path="url(#t)"/><path fill="#FFF" d="m191.677 205.4 3.127 3.845-5.4-1.966-.682.56-.177-.064.102.127-.153.125 4.427 5.443.458-.377-3.622-4.454 6.244 2.289.559-.462-4.426-5.443z"/><defs><path id="u" d="M.202 2.151h256.596v252.697H.202z"/></defs><clipPath id="v"><use xlink:href="#u" overflow="visible"/></clipPath><path fill="#FFF" d="M167.574 152.861c.218 0 .395-.073.503-.244l3.815-6.11a.56.56 0 0 0 .086-.312c0-.911-1.745-2.328-2.705-2.328-.217 0-.396.074-.502.244l-3.817 6.106a.582.582 0 0 0-.087.313c0 .912 1.747 2.331 2.707 2.331" clip-path="url(#v)"/><path fill="#FFF" d="M138.175 157.527c.539-1.225 1.188-2.092 1.818-2.61-.198 1.301-.908 3.104-2.37 5.409l-.248.031c.024-.752.738-2.688.8-2.83m-11.282 4.618a73.5 73.5 0 0 0-4.975 1.248c.284-.522 4.33-7.632 5.042-7.632.017 0 .033.004.048.013.485.332.657 1.121.655 2.044 0 1.575-.494 3.541-.77 4.327m-9.129 9.279a306.478 306.478 0 0 1 2.314-4.566c1.538-.476 3.328-.916 5.198-1.318-1.426 2.353-4.538 5.891-7.512 5.884m-15.25-84.687v55.755L77.092 91.993h-1.624l-25.6 50.853v-25.201l22.665-30.908h29.981zm154.387 58.227c-.132-.671-.962-1.549-1.855-1.96-5.392-2.485-13.811-3.177-22.919-2.94h-.046c.414-3.874.624-7.786.624-11.731 0-14.577-2.834-28.716-8.422-42.028a107.643 107.643 0 0 0-15.647-26.163c-.173-.211-.343-.423-.518-.632a102.87 102.87 0 0 0-1.943-2.295c-.179-.205-.356-.409-.537-.614-.725-.82-1.463-1.629-2.215-2.429-.186-.198-.371-.395-.559-.591a93.244 93.244 0 0 0-1.551-1.596 120.41 120.41 0 0 0-.8-.798l-.582-.569a112.952 112.952 0 0 0-3.205-2.994 119.762 119.762 0 0 0-2.592-2.254c-.21-.174-.417-.349-.628-.521a105.996 105.996 0 0 0-3.164-2.524c-.86-.66-1.727-1.305-2.605-1.937a80.909 80.909 0 0 0-.671-.476 108.42 108.42 0 0 0-2.571-1.767 106.722 106.722 0 0 0-17.249-9.299c-13.212-5.629-27.248-8.485-41.718-8.485-14.467 0-28.503 2.856-41.718 8.485-12.763 5.439-24.224 13.223-34.067 23.139a107.693 107.693 0 0 0-19.23 26.338h1.674A106.13 106.13 0 0 1 50.791 53.04c9.705-9.781 21.011-17.457 33.595-22.821 13.031-5.553 26.873-8.368 41.142-8.368s28.111 2.815 41.142 8.368a105.075 105.075 0 0 1 16.061 8.55l.697.453c.867.573 1.725 1.16 2.575 1.76.224.157.451.314.673.476.88.628 1.749 1.273 2.609 1.93.216.167.434.333.65.501.849.658 1.69 1.333 2.521 2.019.209.172.418.347.627.521.876.736 1.741 1.484 2.595 2.25.203.181.403.364.604.546.88.8 1.747 1.617 2.603 2.447.194.19.388.378.58.57a93.244 93.244 0 0 1 2.353 2.394c.186.196.373.392.559.591.75.8 1.49 1.609 2.213 2.43.181.203.358.408.537.615.657.757 1.307 1.521 1.941 2.295.174.211.345.423.515.636a106.105 106.105 0 0 1 15.337 25.682c5.51 13.128 8.305 27.072 8.305 41.448 0 3.962-.213 7.89-.638 11.778-3.878.143-7.855.445-11.754.837 3.002-9.116 5.262-15.627 5.281-15.686.175-.496-.407-1.395-1.292-2.006-.888-.614-1.749-.705-1.917-.204-.021.06-2.728 7.848-6.153 18.343a302.563 302.563 0 0 0-14.633 2.107l-25.931-51.509h-1.624l-25.05 49.762c-1.877-2.226-3.522-5.7-5.26-9.369-2.259-4.769-4.819-10.171-8.502-14.209-4.171-4.572-9.106-6.651-15.078-6.345l28.053-26.527H137.261l.166.409c.004.011.444 1.135.013 3.05-.401 1.784-1.661 4.633-5.379 8.081L110.8 116.368V85.305H64.756v.295c0 .188.032.809.446.955.684.259 1.061.969 1.061 1.995 0 1.551-.804 4.489-4.63 9.688l-12.386 17.19-20.185-30.123H19.15l22.514 33.934v25.662h7.169l-.022.044h.466v.386l.194-.386h7.167v-.296c0-.078-.013-.746-.505-.884-.502-.177-1.201-1.385-1.201-3.531 0-1.604.392-4.313 2.269-8.092l15.923-31.717 15.828 31.402a35.003 35.003 0 0 0-8.159-5.78c-3.681-1.872-7.361-2.864-10.639-2.864-2.424 0-4.585.509-6.425 1.514-2.014 1.1-3.662 2.808-4.896 5.073l.494.321c1.365-1.835 3.002-3.226 4.868-4.136 1.736-.85 3.666-1.279 5.737-1.279 2.079 0 4.287.405 6.565 1.207 2.142.753 4.288 1.836 6.377 3.212 4.016 2.648 7.538 6.241 9.667 9.863l3.047 5.987h7.499l.015.032v-.032h.647l-.023-.044h7.074v-25.624l7.261-6.867.171.035c5.743 1.119 8.782 7.975 12 15.235 1.932 4.363 3.932 8.873 6.617 12.283 1.46 1.854 2.987 3.222 4.667 4.177 1.874 1.063 3.968 1.605 6.222 1.605 1.583 0 3.311-.276 5.004-.8h.994v-.296c0-.078-.015-.746-.507-.884-.5-.177-1.201-1.385-1.201-3.531 0-1.604.395-4.313 2.271-8.092l15.923-31.717 15.828 31.402a34.973 34.973 0 0 0-8.161-5.78c-3.681-1.872-7.359-2.864-10.639-2.864-2.422 0-4.583.509-6.423 1.514-2.016 1.1-3.664 2.808-4.898 5.073l.494.321c1.368-1.835 3.005-3.226 4.868-4.136 1.738-.85 3.669-1.279 5.737-1.279 2.079 0 4.29.405 6.567 1.207 2.142.753 4.288 1.836 6.375 3.212 4.016 2.648 7.54 6.244 9.669 9.863l2.996 5.887c-3.6.691-5.782 1.174-5.813 1.18-.588.127-.511.863.177 1.641.684.777 1.717 1.299 2.301 1.171.072-.015 11.062-2.445 24.408-4.231-1.689 5.224-3.591 10.95-5.443 16.633-1.793 1.404-11.041 8.355-12.628 8.355-.073 0-.129-.013-.168-.043-.05-.039-.069-.16-.069-.354 0-.979.517-3.776.517-6.436 0-1.889-.261-3.709-1.154-4.762-.918-1.082-2.212-1.775-3.595-1.775-.354 0-.712.046-1.072.14-2.754.732-8.087 5.781-12.545 10.139 2.316-4.598 4.74-9.336 4.751-9.362a.608.608 0 0 0 .067-.283c0-.925-1.756-2.325-2.707-2.325-.231 0-.416.085-.515.276-.501.984-2.114 4.068-3.839 7.443-3.21 3.641-9.561 9.934-13.295 9.934l-.107-.002c-.115-.384-.166-.839-.166-1.346 0-3.966 3.161-11.176 4.427-13.878a.637.637 0 0 0 .059-.27c0-.934-1.765-2.329-2.716-2.329-.237 0-.422.086-.52.287-.713 1.527-1.811 3.903-2.734 6.481a.56.56 0 0 0-.235.136c-4.337 4.296-14.31 16.544-18.79 18.625.811-4.313 9.106-16.132 8.14-18.703-.524-1.395-1.501-2.187-3.002-2.28-.908-.052-3.147 1.01-4.232 1.312 1.074-2.276 1.331-4.021 1.096-5.166-.401-1.975-2.778-4.033-4.846-3.455-2.888.809-5.304 5.715-3.395 9.086-1.163.171-2.588.397-4.154.678a11.1 11.1 0 0 0 .093-1.394c0-1.373-.287-2.659-.91-3.763-.719-1.27-3.121-3.334-4.918-3.334-.39 0-.752.099-1.063.323-2.413 1.738-7.465 12.121-7.598 12.252-.268.139-.526.277-.768.419 2.918-8.017 5.193-14.198 5.211-14.247.351-.945-1.657-2.565-2.683-2.565-.25 0-.442.097-.527.324-.049.127-16.406 44.577-17.78 50.001a2.639 2.639 0 0 0-.086.647c0 1.066.798 1.784 2.338 2.181.209.052.483-.138.811-.539a.19.19 0 0 0 .172-.154c.007-.032.018-.071.028-.107 1.174-1.605 2.979-5.474 5.237-10.314 2.45-5.254 5.452-11.692 8.368-17.64 1.033.488 2.043.705 3.015.705 4.754 0 8.627-5.214 10.225-9.524a204.169 204.169 0 0 1 8.558-1.294c2.099.589 4.456.194 6.701-.494-1.956 3.919-8.855 14.578-6.632 17.936.572.86 1.519 1.62 2.47 1.945 3.431 1.18 11.974-8.368 17.478-14.556-.017.259-.028.516-.028.764 0 1.268.222 2.398.755 3.285.733 1.218 2.04 2.251 3.407 2.627a4.61 4.61 0 0 0 1.243.163c2.036 0 4.317-1.184 6.509-2.831-.225.539-.352.91-.352 1.056 0 1.504.945 2.489 2.75 2.489 2.144 0 14.877-15.289 19.846-16.572.009.173.013.349.013.528 0 1.834-.384 3.98-.384 5.996 0 2.105.416 4.07 2.122 5.394.85.658 1.825.938 2.873.938 2.739 0 5.974-1.908 8.731-3.94-3.837 12.065-6.939 22.915-6.617 27.052.049.632.821 1.527 1.723 1.999.906.474 1.6.347 1.551-.285-.546-6.977 8.963-33.977 15.084-52.742 4.087-.484 8.308-.88 12.433-1.113a41.354 41.354 0 0 0-.215 1.533h-.005a106.026 106.026 0 0 1-7.097 25.268c-5.323 12.68-12.945 24.067-22.653 33.846-.073.075-.146.147-.22.22l1.036 1.065c.077-.077.155-.153.23-.23a107.634 107.634 0 0 0 22.97-34.321 107.614 107.614 0 0 0 7.231-25.833h-.004c.028-.233.11-.778.164-1.145h.002l.026-.19.026-.172h-.003l.016-.119.038-.002c9.522-.44 18.382.067 23.744 2.538.891.412 1.507.199 1.378-.472" clip-path="url(#v)"/></svg>